<svg xmlns="http://www.w3.org/2000/svg" width="25" height="25" viewBox="0 0 25 25">
    <g fill="none" fill-rule="nonzero">
        <path fill="#3954E5" d="M12.5 25C5.607 25 0 19.393 0 12.5 0 5.609 5.607 0 12.5 0S25 5.607 25 12.5C25 19.395 19.392 25 12.5 25z"/>
        <path fill="#FFF" d="M17.59 13H7.41c-.226 0-.41-.224-.41-.5s.184-.5.41-.5h10.18c.226 0 .41.224.41.5s-.183.5-.41.5z"/>
        <path fill="#FFF" d="M12.5 18c-.276 0-.5-.184-.5-.41V7.41c0-.226.224-.41.5-.41s.5.184.5.41v10.18c0 .226-.224.41-.5.41z"/>
    </g>
</svg>
