<svg xmlns="http://www.w3.org/2000/svg" xmlns:xlink="http://www.w3.org/1999/xlink" width="24" height="24" viewBox="0 0 24 24">
    <defs>
        <path id="a" d="M0 0h24v24H0z"/>
        <rect id="c" width="37.5" height="26.184" rx="2"/>
        <path id="f" d="M-10.466 1.427L49.259 26.56h-59.732l.007-25.132z"/>
        <filter id="e" width="141.9%" height="199.5%" x="-20.9%" y="-45.8%" filterUnits="objectBoundingBox">
            <feOffset dy="1" in="SourceAlpha" result="shadowOffsetOuter1"/>
            <feGaussianBlur in="shadowOffsetOuter1" result="shadowBlurOuter1" stdDeviation="4"/>
            <feColorMatrix in="shadowBlurOuter1" values="0 0 0 0 0 0 0 0 0 0 0 0 0 0 0 0 0 0 0.231176404 0"/>
        </filter>
        <path id="h" d="M-2.89 12.237l45.995 17.368h-46l.006-17.368z"/>
        <filter id="g" width="147.8%" height="226.7%" x="-23.9%" y="-57.6%" filterUnits="objectBoundingBox">
            <feOffset dy="1" in="SourceAlpha" result="shadowOffsetOuter1"/>
            <feGaussianBlur in="shadowOffsetOuter1" result="shadowBlurOuter1" stdDeviation="3.5"/>
            <feColorMatrix in="shadowBlurOuter1" values="0 0 0 0 0 0 0 0 0 0 0 0 0 0 0 0 0 0 0.247678895 0"/>
        </filter>
    </defs>
    <g fill="none" fill-rule="evenodd">
        <g>
            <mask id="b" fill="#fff">
                <use xlink:href="#a"/>
            </mask>
            <use fill="#D8D8D8" fill-rule="nonzero" xlink:href="#a"/>
            <g mask="url(#b)">
                <g transform="translate(-5.25 -2.197)">
                    <mask id="d" fill="#fff">
                        <use xlink:href="#c"/>
                    </mask>
                    <use fill="#374951" xlink:href="#c"/>
                    <g mask="url(#d)" transform="rotate(13 19.393 13.993)">
                        <use fill="#000" filter="url(#e)" xlink:href="#f"/>
                        <use fill="#455964" xlink:href="#f"/>
                    </g>
                    <g mask="url(#d)">
                        <use fill="#000" filter="url(#g)" xlink:href="#h"/>
                        <use fill="#49606B" xlink:href="#h"/>
                    </g>
                </g>
            </g>
        </g>
        <g fill="#FFF" fill-rule="nonzero">
            <path d="M7.518 10.083a.306.306 0 0 0-.304.307c0 .17.136.308.304.308a.306.306 0 0 0 .303-.308.306.306 0 0 0-.303-.307z"/>
            <path d="M18.446 6.394c-3.308 0-5.085-1.79-5.67-2.379a1.555 1.555 0 0 0-.241-.219.3.3 0 0 0-.32 0 1.022 1.022 0 0 0-.162.145c-.217.214-.723.715-1.506 1.211a7.82 7.82 0 0 1-4.243 1.242A.306.306 0 0 0 6 6.7v4.033c0 1.936.603 3.78 1.744 5.334 1.238 1.684 2.851 2.894 4.544 3.409a.3.3 0 0 0 .174 0c1.693-.515 3.306-1.725 4.544-3.41a8.947 8.947 0 0 0 1.744-5.333V6.701a.306.306 0 0 0-.304-.307zm-.303 4.34c0 1.803-.562 3.52-1.624 4.967-1.139 1.549-2.607 2.668-4.144 3.16-1.537-.492-3.005-1.611-4.144-3.16a8.331 8.331 0 0 1-1.624-4.967v-3.73a8.414 8.414 0 0 0 4.262-1.33 9.188 9.188 0 0 0 1.507-1.194c.637.64 2.453 2.42 5.767 2.524v3.73z"/>
            <path d="M17.266 7.559c-1.671-.188-3.257-.872-4.712-2.036a.3.3 0 0 0-.373-.002c-1.441 1.117-3.11 1.839-4.7 2.031a.306.306 0 0 0-.267.306V9.16c0 .17.136.308.304.308a.306.306 0 0 0 .303-.308V8.126c1.155-.178 2.795-.673 4.542-1.975 1.417 1.087 2.95 1.754 4.566 1.984v2.6c0 1.536-.48 2.999-1.385 4.231-.867 1.182-1.961 2.045-3.169 2.504-1.208-.459-2.302-1.322-3.169-2.503a7.126 7.126 0 0 1-1.335-3.385.304.304 0 0 0-.338-.269.307.307 0 0 0-.265.342 7.746 7.746 0 0 0 1.451 3.679c.964 1.312 2.193 2.264 3.555 2.752a.3.3 0 0 0 .202 0c1.362-.488 2.592-1.44 3.555-2.753a7.712 7.712 0 0 0 1.505-4.599v-2.87a.306.306 0 0 0-.27-.305z"/>
            <path d="M15.389 10.489a.305.305 0 0 0-.245-.21l-1.734-.254-.775-1.59a.303.303 0 0 0-.272-.172.303.303 0 0 0-.272.171l-.775 1.59-1.733.256a.305.305 0 0 0-.246.209.31.31 0 0 0 .077.315l1.255 1.238-.296 1.748a.31.31 0 0 0 .12.3.3.3 0 0 0 .32.024l1.55-.825 1.55.825a.3.3 0 0 0 .32-.023.31.31 0 0 0 .12-.3l-.295-1.75 1.254-1.237a.31.31 0 0 0 .077-.315zm-1.87 1.225a.31.31 0 0 0-.087.273l.22 1.293-1.148-.61a.3.3 0 0 0-.282 0l-1.147.61.219-1.293a.31.31 0 0 0-.087-.273l-.928-.915 1.282-.19a.304.304 0 0 0 .229-.167l.573-1.177.573 1.177c.045.09.13.153.229.168l1.282.189-.928.915z"/>
        </g>
    </g>
</svg>
