<svg xmlns="http://www.w3.org/2000/svg" width="11" height="10" viewBox="0 0 11 10">
    <g fill="#4A4A4A" fill-rule="evenodd">
        <path d="M10.474 4.878a.308.308 0 0 0-.31.308v2.81c0 .765-.622 1.385-1.384 1.385H2.002A1.386 1.386 0 0 1 .618 7.997V5.14a.308.308 0 0 0-.31-.31.308.308 0 0 0-.308.31v2.856c0 1.105.9 2.002 2.002 2.002H8.78c1.106 0 2.003-.9 2.003-2.002v-2.81a.31.31 0 0 0-.31-.31z"/>
        <path d="M5.174 7.546c.06.06.14.091.217.091.078 0 .158-.03.218-.091l1.963-1.964a.308.308 0 0 0 0-.437.308.308 0 0 0-.437 0L5.7 6.582V.315a.308.308 0 0 0-.309-.31.308.308 0 0 0-.309.31v6.267L3.645 5.145a.308.308 0 0 0-.437 0 .308.308 0 0 0 0 .437l1.966 1.964z"/>
    </g>
</svg>
