<svg xmlns="http://www.w3.org/2000/svg" width="30" height="30" viewBox="0 0 30 30">
    <g fill="none" fill-rule="nonzero">
        <rect width="30" height="30" fill="#F78C3D" rx="4"/>
        <path fill="#FFF" d="M22.919 8.322a.484.484 0 0 0-.438-.278H7.484a.484.484 0 0 0-.373.792l5.765 6.992v6.448a.484.484 0 0 0 .698.434l3.24-1.606a.484.484 0 0 0 .269-.433l.006-4.843 5.766-6.992a.484.484 0 0 0 .064-.514zm-6.687 7.025a.484.484 0 0 0-.11.307l-.007 4.716-2.271 1.126v-5.842a.484.484 0 0 0-.111-.307L8.51 9.012h12.945l-5.223 6.335z"/>
    </g>
</svg>
