<svg xmlns="http://www.w3.org/2000/svg" xmlns:xlink="http://www.w3.org/1999/xlink" width="113" height="113" viewBox="0 0 113 113">
    <defs>
        <circle id="b" cx="57" cy="57" r="40"/>
        <filter id="a" width="117.5%" height="117.5%" x="-8.8%" y="-6.2%" filterUnits="objectBoundingBox">
            <feOffset dy="2" in="SourceAlpha" result="shadowOffsetOuter1"/>
            <feGaussianBlur in="shadowOffsetOuter1" result="shadowBlurOuter1" stdDeviation="2"/>
            <feColorMatrix in="shadowBlurOuter1" values="0 0 0 0 0 0 0 0 0 0 0 0 0 0 0 0 0 0 0.0255038496 0"/>
        </filter>
    </defs>
    <g fill="none" fill-rule="nonzero">
        <circle cx="56.5" cy="56.5" r="56.5" fill="#9013FE" opacity=".2"/>
        <circle cx="56.5" cy="56.5" r="48.5" fill="#9013FE" opacity=".2"/>
        <use fill="#000" filter="url(#a)" xlink:href="#b"/>
        <use fill="#9013FE" xlink:href="#b"/>
        <g fill="#FFF">
            <path d="M62.438 62.36v-.69c.195-.157.382-.33.562-.509a10.236 10.236 0 0 0 2.59-5.706 5.032 5.032 0 0 0 3.25-1.931c1.086-1.535 1.183-3.744.277-6.515a.749.749 0 0 0-.3-.389l-.411-.277c.06-2.5-.803-4.934-2.426-6.836-2.014-2.27-5.107-3.415-9.203-3.43-4.088 0-7.188 1.16-9.202 3.4a10.153 10.153 0 0 0-2.426 6.836l-.412.277a.749.749 0 0 0-.3.39c-.905 2.785-.808 4.979.278 6.514a5.046 5.046 0 0 0 3.25 1.954 10.243 10.243 0 0 0 2.598 5.713c.178.18.365.35.561.51v.688c-2.868.554-14.316 3.242-14.122 10.88 0 .413.336.748.75.748h38.06a.749.749 0 0 0 .748-.748c.195-7.638-11.254-10.326-14.122-10.88zm-14.923-8.582a3.25 3.25 0 0 1-1.587-1.16l.037.007c-.749-1.093-.816-2.748-.15-4.934l.547-.367a.749.749 0 0 0 .33-.697 8.85 8.85 0 0 1 2.036-6.162c1.692-1.917 4.41-2.875 8.05-2.89 3.638-.015 6.356.973 8.079 2.89a8.85 8.85 0 0 1 2.036 6.162c-.027.276.1.543.33.697l.546.367c.667 2.179.622 3.84-.15 4.934-.399.542-.956.947-1.594 1.16a4.986 4.986 0 0 0 1.22-3.743 3.504 3.504 0 0 0-1.205-2.097c-.322-7.487-5.571-8.326-7.832-8.326a9.439 9.439 0 0 0-1.43.105 9.426 9.426 0 0 0-1.43-.105c-2.247 0-7.488.824-7.833 8.326a3.504 3.504 0 0 0-1.22 2.09 4.98 4.98 0 0 0 1.22 3.743zm17.035-6.14a15.425 15.425 0 0 1-8.948-2.246.749.749 0 0 0-.974.097c-1.497 1.61-4.23 1.985-5.548 2.067.404-5.294 3.61-6.447 6.305-6.447.429-.003.857.032 1.28.105.099.02.2.02.3 0a7.273 7.273 0 0 1 1.28-.105c2.673 0 5.893 1.183 6.267 6.522l.038.007zM49.342 53.92l.03.008a.748.748 0 0 0-.187-.502c-1.026-1.175-1.498-2.246-1.37-3.13.06-.492.304-.943.681-1.265.988 0 4.493-.187 6.739-2.126a16.884 16.884 0 0 0 8.311 2.246c.502 0 1.011 0 1.543-.083.367.314.606.75.674 1.228.127.869-.345 1.955-1.37 3.13a.748.748 0 0 0-.188.502v.39l-4.358 2.335a2.156 2.156 0 1 0 .674 1.565 2.023 2.023 0 0 0 0-.202l3.437-1.842a8.237 8.237 0 0 1-2.007 3.954 6.671 6.671 0 0 1-4.964 1.857h-.374a6.687 6.687 0 0 1-4.957-1.85c-2.366-2.358-2.314-6.177-2.314-6.215zm9.682 4.298a.666.666 0 1 1-1.333 0 .666.666 0 0 1 1.333 0zm-2.995 14.227H38.522c.592-5.623 9.734-7.974 12.595-8.58v1.34c0 1.7 2.066 2.994 4.912 3.212v4.028zm-3.415-7.24v-2.583a9.053 9.053 0 0 0 3.976.838h.375a9.053 9.053 0 0 0 3.976-.839v2.583c0 .712-1.625 1.738-4.164 1.738-2.538 0-4.163-1.026-4.163-1.738zm4.912 7.262V68.41c2.845-.195 4.912-1.497 4.912-3.212v-1.31c2.883.599 11.98 2.95 12.594 8.58H57.526z"/>
        </g>
    </g>
</svg>
