<svg xmlns="http://www.w3.org/2000/svg" width="30" height="30" viewBox="0 0 30 30">
    <g fill="none" fill-rule="evenodd">
        <rect width="30" height="30" fill="#F78C3D" fill-rule="nonzero" rx="4"/>
        <path fill="#FFF" d="M21.63 8.628c-.249-.103-.46-.06-.637.128L19.809 9.93a7.067 7.067 0 0 0-2.226-1.425A6.86 6.86 0 0 0 14.993 8c-.947 0-1.852.185-2.714.556a7.053 7.053 0 0 0-2.23 1.493 7.055 7.055 0 0 0-1.494 2.23A6.804 6.804 0 0 0 8 14.993c0 .946.185 1.85.555 2.713.37.862.868 1.606 1.494 2.23a7.057 7.057 0 0 0 2.23 1.494c.862.37 1.767.555 2.714.555 1.044 0 2.036-.22 2.977-.66a6.836 6.836 0 0 0 2.404-1.862.3.3 0 0 0 .068-.205.252.252 0 0 0-.086-.186l-1.248-1.257a.35.35 0 0 0-.227-.082c-.097.013-.167.05-.21.11a4.572 4.572 0 0 1-1.63 1.338 4.592 4.592 0 0 1-2.048.474 4.54 4.54 0 0 1-1.807-.37 4.694 4.694 0 0 1-1.489-.996A4.699 4.699 0 0 1 10.7 16.8a4.54 4.54 0 0 1-.369-1.807c0-.631.123-1.234.37-1.807.245-.574.577-1.07.996-1.489a4.698 4.698 0 0 1 1.489-.997 4.541 4.541 0 0 1 1.807-.369c1.22 0 2.28.416 3.178 1.248l-1.257 1.256c-.188.182-.23.391-.128.628.104.243.283.364.538.364h4.079a.56.56 0 0 0 .41-.173.56.56 0 0 0 .172-.41V9.167a.545.545 0 0 0-.355-.538z"/>
    </g>
</svg>
