<svg xmlns="http://www.w3.org/2000/svg" xmlns:xlink="http://www.w3.org/1999/xlink" width="113" height="113" viewBox="0 0 113 113">
    <defs>
        <circle id="b" cx="57" cy="57" r="40"/>
        <filter id="a" width="117.5%" height="117.5%" x="-8.8%" y="-6.2%" filterUnits="objectBoundingBox">
            <feOffset dy="2" in="SourceAlpha" result="shadowOffsetOuter1"/>
            <feGaussianBlur in="shadowOffsetOuter1" result="shadowBlurOuter1" stdDeviation="2"/>
            <feColorMatrix in="shadowBlurOuter1" values="0 0 0 0 0 0 0 0 0 0 0 0 0 0 0 0 0 0 0.0255038496 0"/>
        </filter>
    </defs>
    <g fill="none" fill-rule="nonzero">
        <circle cx="56.5" cy="56.5" r="56.5" fill="#9013FE" opacity=".2"/>
        <circle cx="56.5" cy="56.5" r="48.5" fill="#9013FE" opacity=".2"/>
        <use fill="#000" filter="url(#a)" xlink:href="#b"/>
        <use fill="#9013FE" xlink:href="#b"/>
        <g fill="#FFF" stroke="#FFF" stroke-width=".3">
            <path d="M56.873 57h.246c2.248-.04 4.066-.872 5.409-2.462 2.954-3.502 2.463-9.507 2.41-10.08-.193-4.302-2.126-6.36-3.722-7.32-1.19-.718-2.578-1.106-4.128-1.138h-.13c-.852 0-2.524.145-4.128 1.106-1.611.96-3.575 3.018-3.767 7.352-.054.573-.545 6.578 2.409 10.08 1.335 1.59 3.153 2.422 5.401 2.462zm-5.762-12.34c0-.024.008-.049.008-.065.253-5.786 4.159-6.408 5.831-6.408h.092c2.072.049 5.593.936 5.831 6.408 0 .025 0 .049.008.065.008.056.545 5.544-1.895 8.434-.967 1.146-2.256 1.71-3.951 1.727h-.077c-1.688-.016-2.985-.581-3.944-1.727-2.432-2.873-1.91-8.386-1.903-8.434z"/>
            <path d="M73.998 66.452v-.023c0-.06-.008-.121-.008-.19-.048-1.505-.153-5.024-3.64-6.149-.024-.007-.056-.015-.08-.023-3.623-.874-6.636-2.85-6.668-2.873a1.123 1.123 0 0 0-1.51.251c-.346.464-.226 1.102.265 1.43.136.09 3.334 2.196 7.335 3.169 1.871.63 2.08 2.523 2.137 4.256 0 .069 0 .13.008.19.008.684-.04 1.74-.17 2.349-1.3.7-6.402 3.116-14.163 3.116-7.729 0-12.862-2.424-14.172-3.124-.129-.608-.185-1.664-.169-2.348 0-.061.008-.122.008-.19.057-1.733.265-3.626 2.137-4.257 4.001-.973 7.199-3.086 7.335-3.17.49-.326.611-.965.266-1.428a1.123 1.123 0 0 0-1.51-.251c-.033.022-3.03 1.999-6.669 2.873a1.055 1.055 0 0 0-.08.023c-3.487 1.132-3.592 4.651-3.64 6.149 0 .068 0 .129-.008.19v.023c-.008.395-.016 2.424.41 3.443a.99.99 0 0 0 .418.479c.24.152 6.017 3.633 15.682 3.633s15.441-3.489 15.682-3.633c.185-.114.338-.281.418-.48.402-1.01.394-3.04.386-3.435z"/>
        </g>
    </g>
</svg>
