<svg xmlns="http://www.w3.org/2000/svg" width="20" height="19" viewBox="0 0 20 19">
    <path fill="#E1971C" fill-rule="evenodd" stroke="#F7FAFC" d="M18.61 8.815c.354-.345.479-.852.326-1.323a1.283 1.283 0 0 0-1.042-.879l-4.359-.633a.57.57 0 0 1-.429-.312L11.158 1.72A1.283 1.283 0 0 0 10 1c-.494 0-.938.276-1.157.72L6.894 5.668a.57.57 0 0 1-.43.311l-4.358.634c-.49.07-.889.407-1.042.878-.153.471-.028.978.327 1.324l3.153 3.073a.57.57 0 0 1 .164.505l-.744 4.34c-.066.382.035.754.282 1.047a1.304 1.304 0 0 0 1.591.314l3.898-2.05a.583.583 0 0 1 .53 0l3.898 2.05c.19.1.392.15.601.15a1.294 1.294 0 0 0 1.272-1.51l-.744-4.341a.57.57 0 0 1 .164-.505l3.153-3.074z"/>
</svg>
