<svg xmlns="http://www.w3.org/2000/svg" width="26" height="28" viewBox="0 0 26 28">
    <path fill="#FFF" fill-rule="nonzero" stroke="#FFF" d="M25.181 5.023C24.626 2.995 20.488 1 13.251 1S1.877 2.995 1.321 5.023a.458.458 0 0 0-.07.232v17.49c0 .077.021.15.057.214C1.874 25.273 6.946 27 13.25 27c6.291 0 11.355-1.72 11.94-4.026a.461.461 0 0 0 .06-.229V5.255a.458.458 0 0 0-.07-.232zm-.927 12.043a1.15 1.15 0 0 1-.125.312 1.599 1.599 0 0 1-.216.305c-.053.062-.11.124-.174.185-.039.038-.082.075-.125.112-.079.067-.16.135-.252.201-.04.03-.082.057-.124.085a5.552 5.552 0 0 1-.346.22c-.032.019-.067.037-.102.056-.143.08-.292.158-.453.235l-.063.029c-.18.083-.369.166-.57.245l-.017.007c-1.09.428-2.485.79-4.11 1.026a26.8 26.8 0 0 1-.997.126l-.165.014c-.29.03-.585.058-.887.08-.138.01-.283.014-.424.023-.227.013-.452.027-.686.035a33.638 33.638 0 0 1-2.334-.001c-.233-.008-.458-.023-.686-.036-.14-.008-.285-.013-.424-.023-.302-.022-.596-.05-.886-.079-.055-.006-.112-.01-.166-.015a27.896 27.896 0 0 1-.973-.123l-.024-.003c-1.625-.236-3.02-.597-4.11-1.026a10.28 10.28 0 0 1-.587-.252l-.062-.029a7.678 7.678 0 0 1-.454-.234l-.102-.057a5.552 5.552 0 0 1-.346-.22c-.041-.027-.084-.055-.123-.084a3.941 3.941 0 0 1-.253-.202c-.042-.036-.086-.073-.125-.111a2.482 2.482 0 0 1-.279-.316 1.759 1.759 0 0 1-.18-.315 1.133 1.133 0 0 1-.055-.172c-.018-.075-.038-.152-.038-.228 0-.053.007-.106.015-.16a.464.464 0 0 0-.015-.21v-3.51c.014.013.03.025.045.037.104.09.21.181.33.268 1.809 1.347 5.425 2.394 10.665 2.394 5.219 0 8.826-1.039 10.642-2.377.145-.104.275-.212.398-.32v-.001 3.51a.464.464 0 0 0-.014.21c.009.053.014.106.014.16 0 .075-.02.152-.037.229zm.037-9.782v3.51a.464.464 0 0 0-.014.21c.009.053.014.106.014.16 0 .076-.02.152-.037.229a1.15 1.15 0 0 1-.125.312 1.599 1.599 0 0 1-.216.305c-.053.062-.11.124-.174.186-.039.037-.082.074-.125.111-.079.068-.16.135-.252.202l-.124.085a5.552 5.552 0 0 1-.346.219c-.032.019-.067.037-.102.056-.143.08-.292.159-.453.235l-.063.029c-.18.084-.369.166-.57.245l-.017.007c-1.09.429-2.485.79-4.11 1.026l-.024.003a26.8 26.8 0 0 1-.972.123c-.055.005-.112.009-.166.015-.29.03-.585.057-.887.079-.138.01-.283.014-.424.023-.227.013-.452.028-.686.036a33.638 33.638 0 0 1-2.334-.001c-.233-.009-.458-.024-.686-.037-.14-.008-.285-.013-.424-.023-.302-.022-.596-.049-.886-.079l-.166-.015a27.896 27.896 0 0 1-.997-.126c-1.625-.236-3.02-.597-4.11-1.025a10.28 10.28 0 0 1-.587-.252l-.062-.03a7.678 7.678 0 0 1-.454-.234l-.102-.057a5.552 5.552 0 0 1-.346-.219c-.041-.028-.084-.056-.123-.085a3.941 3.941 0 0 1-.253-.201c-.042-.037-.086-.074-.125-.112a2.482 2.482 0 0 1-.279-.316 1.759 1.759 0 0 1-.18-.315 1.133 1.133 0 0 1-.055-.172c-.018-.075-.038-.151-.038-.227 0-.054.007-.107.015-.16a.464.464 0 0 0-.015-.21v-3.51c.058.051.124.102.186.153.035.028.067.057.103.085.144.112.3.222.468.33l.111.065a8.245 8.245 0 0 0 .624.346c.175.088.359.173.552.256.032.014.06.028.093.041.225.094.464.184.713.271.068.024.14.047.21.07.199.066.403.13.615.19.076.022.151.045.23.065.28.077.57.15.874.217.042.01.087.017.13.026a22.204 22.204 0 0 0 1.126.21c.273.044.553.084.84.121l.22.03c.357.042.727.079 1.106.11l.286.02c.304.021.615.04.932.054l.35.014c.413.014.835.024 1.271.024.437 0 .859-.01 1.272-.024l.35-.014c.317-.015.628-.033.932-.054l.286-.02c.38-.03.749-.068 1.106-.11l.22-.03a26.264 26.264 0 0 0 1.134-.17c.286-.05.564-.103.832-.161l.13-.026c.304-.067.594-.14.875-.217.078-.02.153-.043.23-.065.21-.06.415-.124.613-.19.07-.023.143-.046.211-.07.249-.087.488-.177.713-.27l.093-.042a10.334 10.334 0 0 0 .728-.347c.157-.083.306-.168.448-.255l.11-.066a6.08 6.08 0 0 0 .468-.329c.036-.028.069-.057.104-.085.062-.05.128-.102.185-.153zm-11.04-5.339c6.507 0 11.04 1.869 11.04 3.546 0 1.677-4.533 3.545-11.04 3.545-6.506 0-11.04-1.868-11.04-3.545 0-1.677 4.534-3.546 11.04-3.546zm11.04 20.66a.476.476 0 0 0-.015.064c-.272 1.635-4.767 3.386-11.025 3.386-6.257 0-10.752-1.751-11.024-3.386a.509.509 0 0 0-.016-.062v-3.978c.014.013.03.025.045.037.104.09.21.18.33.268 1.809 1.347 5.425 2.393 10.665 2.393 5.219 0 8.826-1.038 10.642-2.377.145-.104.275-.21.398-.32v3.975z" opacity=".3"/>
</svg>
