<svg xmlns="http://www.w3.org/2000/svg" width="14" height="11" viewBox="0 0 14 11">
    <path fill="#F13F54" fill-rule="evenodd" d="M5.402 0c.507.127.837.533.99 1.218-.736.406-1.484 1.015-2.245 1.827-.761.812-1.294 1.7-1.598 2.664h.114c.964 0 1.718.248 2.264.743.545.494.818 1.135.818 1.922a2.45 2.45 0 0 1-.818 1.865 2.775 2.775 0 0 1-1.96.761c-.913 0-1.635-.324-2.168-.97C.266 9.381 0 8.601 0 7.688c0-1.548.495-2.931 1.484-4.15C2.473 2.323 3.779 1.143 5.402 0zm7.609 0c.507.127.837.533.989 1.218-.736.406-1.484 1.015-2.245 1.827-.76.812-1.293 1.7-1.597 2.664h.114c.964 0 1.718.248 2.263.743.546.494.818 1.135.818 1.922a2.45 2.45 0 0 1-.818 1.865 2.775 2.775 0 0 1-1.959.761c-.913 0-1.636-.324-2.168-.97-.533-.648-.8-1.428-.8-2.341 0-1.548.495-2.931 1.484-4.15.99-1.217 2.296-2.397 3.919-3.539z"/>
</svg>
