<svg xmlns="http://www.w3.org/2000/svg" width="29" height="35" viewBox="0 0 29 35">
    <defs>
        <filter id="a" width="114.3%" height="131.9%" x="-7.1%" y="-12.8%" filterUnits="objectBoundingBox">
            <feOffset dy="2" in="SourceAlpha" result="shadowOffsetOuter1"/>
            <feGaussianBlur in="shadowOffsetOuter1" result="shadowBlurOuter1" stdDeviation="2"/>
            <feColorMatrix in="shadowBlurOuter1" result="shadowMatrixOuter1" values="0 0 0 0 0 0 0 0 0 0 0 0 0 0 0 0 0 0 0.249320652 0"/>
            <feMerge>
                <feMergeNode in="shadowMatrixOuter1"/>
                <feMergeNode in="SourceGraphic"/>
            </feMerge>
        </filter>
    </defs>
    <g fill="#FFF" fill-rule="nonzero" filter="url(#a)" transform="translate(-68 -16)">
        <path d="M91.377 29.592h-.41v-3.465c0-4.48-3.812-8.127-8.507-8.127-4.69 0-8.508 3.642-8.508 8.127 0 .413.346.744.78.744.432 0 .778-.331.778-.744 0-3.659 3.114-6.64 6.95-6.64 3.83 0 6.95 2.976 6.95 6.64v3.465H73.55c-.83 0-1.506.645-1.506 1.438v9.262c0 2.375 2.025 4.309 4.51 4.309h11.82c2.485 0 4.51-1.934 4.51-4.309V31.03c0-.793-.675-1.438-1.506-1.438zm-.052 10.7c0 1.554-1.32 2.82-2.953 2.82H76.56c-1.627 0-2.954-1.26-2.954-2.82V31.08h17.72v9.212z"/>
        <path d="M82.466 39.076c1.609 0 2.913-1.25 2.913-2.782 0-1.538-1.31-2.783-2.913-2.783-1.61 0-2.913 1.25-2.913 2.783 0 1.531 1.304 2.782 2.913 2.782zm0-4.083c.75 0 1.355.584 1.355 1.295 0 .71-.605 1.3-1.355 1.3s-1.356-.584-1.356-1.294c0-.711.606-1.3 1.356-1.3z"/>
    </g>
</svg>
