<svg xmlns="http://www.w3.org/2000/svg" width="27" height="29" viewBox="0 0 27 29">
    <g fill="#FFF" fill-rule="nonzero" opacity=".3">
        <path d="M3.87 11.687c-.337 0-.61.253-.61.566 0 .312.273.566.61.566.337 0 .61-.254.61-.566 0-.313-.273-.566-.61-.566z"/>
        <path d="M25.855 4.894C19.2 4.894 15.624 1.6 14.449.515c-.24-.22-.36-.33-.486-.403a.652.652 0 0 0-.644 0c-.087.05-.157.113-.326.266-.435.394-1.454 1.317-3.03 2.23a16.811 16.811 0 0 1-8.536 2.286c-.337 0-.61.254-.61.566v7.426c0 3.565 1.213 6.96 3.509 9.82 2.49 3.101 5.735 5.33 9.14 6.277a.656.656 0 0 0 .35 0c3.405-.947 6.651-3.176 9.14-6.277 2.296-2.86 3.51-6.255 3.51-9.82V5.46c0-.312-.274-.566-.611-.566zm-.61 7.992c0 3.32-1.13 6.482-3.268 9.145-2.29 2.852-5.244 4.913-8.336 5.818-3.091-.905-6.045-2.966-8.335-5.818-2.138-2.663-3.268-5.825-3.268-9.145v-6.87a18.05 18.05 0 0 0 8.573-2.448 18.298 18.298 0 0 0 3.033-2.198c1.28 1.18 4.934 4.457 11.6 4.648v6.868z"/>
        <path d="M23.48 7.04C20.117 6.693 16.93 5.433 14 3.291a.649.649 0 0 0-.75-.005c-2.9 2.057-6.257 3.386-9.453 3.74-.307.035-.538.276-.538.563v2.399c0 .312.273.566.61.566.338 0 .61-.254.61-.566V8.084c2.324-.328 5.623-1.24 9.137-3.636 2.85 2.001 5.935 3.228 9.185 3.653v4.785c0 2.829-.963 5.523-2.786 7.792-1.744 2.175-3.945 3.766-6.375 4.61-2.43-.844-4.63-2.434-6.375-4.609-1.47-1.83-2.399-3.985-2.686-6.231-.04-.31-.343-.533-.679-.495-.334.036-.574.318-.534.628.313 2.442 1.322 4.785 2.92 6.774 1.938 2.416 4.41 4.169 7.15 5.068a.654.654 0 0 0 .408 0c2.74-.9 5.213-2.653 7.151-5.07 1.98-2.465 3.027-5.393 3.027-8.467V7.602c0-.289-.234-.531-.544-.563z"/>
        <path d="M19.704 12.434a.6.6 0 0 0-.493-.385l-3.487-.47-1.559-2.928a.617.617 0 0 0-.548-.315.617.617 0 0 0-.547.315l-1.56 2.929-3.486.47a.6.6 0 0 0-.493.384.538.538 0 0 0 .154.58l2.523 2.28-.595 3.219a.547.547 0 0 0 .243.553.643.643 0 0 0 .643.043l3.118-1.52 3.118 1.52c.206.1.455.084.644-.043a.547.547 0 0 0 .242-.553l-.595-3.22 2.523-2.278a.538.538 0 0 0 .155-.58zm-3.76 2.257a.54.54 0 0 0-.176.501l.44 2.382-2.306-1.125a.654.654 0 0 0-.569 0l-2.307 1.125.44-2.382a.54.54 0 0 0-.175-.5l-1.867-1.687 2.58-.348a.61.61 0 0 0 .46-.31l1.153-2.166 1.154 2.167a.61.61 0 0 0 .46.31l2.58.347-1.867 1.686z"/>
    </g>
</svg>
