<svg xmlns="http://www.w3.org/2000/svg" width="24" height="24" viewBox="0 0 24 24">
    <g fill="none" fill-rule="evenodd">
        <path d="M0 0h24v24H0z"/>
        <g fill="#FFF" fill-rule="nonzero">
            <path d="M12.502 18.131a1.968 1.968 0 1 0 0 3.936 1.968 1.968 0 0 0 0-3.936zm0 2.973a1.004 1.004 0 1 1 0-2.01 1.004 1.004 0 0 1 0 2.01zM21.027 18.131a1.968 1.968 0 1 0 0 3.936 1.968 1.968 0 0 0 0-3.936zm0 2.973a1.004 1.004 0 1 1 0-2.01 1.004 1.004 0 0 1 0 2.01zM3.978 18.131a1.968 1.968 0 1 0 0 3.936 1.968 1.968 0 0 0 0-3.936zm0 2.973a1.005 1.005 0 1 1 0-2.01 1.005 1.005 0 0 1 0 2.01zM4.17 16.928a.482.482 0 0 0 .481-.482V13.9a.475.475 0 0 1 .463-.488h6.907v3.034a.482.482 0 0 0 .963 0v-3.034h6.892c.266.004.48.222.477.488v2.546a.482.482 0 0 0 .963 0V13.9a1.448 1.448 0 0 0-1.44-1.451h-6.892v-3.33a.482.482 0 0 0-.963 0v3.33H5.118a1.44 1.44 0 0 0-1.43 1.45v2.547c0 .266.216.482.482.482zM12.502 7.41a3.205 3.205 0 1 0 0-6.41 3.205 3.205 0 0 0 0 6.41zm0-5.447a2.241 2.241 0 1 1 0 4.483 2.241 2.241 0 0 1 0-4.483z"/>
        </g>
    </g>
</svg>
