<?xml version="1.0" encoding="UTF-8"?>
<svg width="30px" height="30px" viewBox="0 0 30 30" version="1.1" xmlns="http://www.w3.org/2000/svg" xmlns:xlink="http://www.w3.org/1999/xlink">
    <!-- Generator: Sketch 52.2 (67145) - http://www.bohemiancoding.com/sketch -->
    <title>Group 2 Copy</title>
    <desc>Created with Sketch.</desc>
    <g id="Admin_desktop" stroke="none" stroke-width="1" fill="none" fill-rule="evenodd">
        <g id="AdmincompletedClient(Desktop)" transform="translate(-145.000000, -766.000000)" fill-rule="nonzero">
            <g id="Group-4" transform="translate(122.000000, 235.000000)">
                <g id="Group-2-Copy" transform="translate(24.000000, 532.000000)">
                    <circle id="Oval" stroke="#4A90E2" fill="#FFFFFF" cx="14" cy="14" r="14"></circle>
                    <g id="diagram" transform="translate(5.583333, 4.791667)" fill="#CCCCCC">
                        <path d="M8.31428738,13.5623276 C7.45381375,13.5623276 6.75628942,14.2598518 6.75628942,15.1201765 C6.75628942,15.9806502 7.45381375,16.6781745 8.31413844,16.6783235 C9.17461206,16.6783235 9.8721364,15.9807991 9.87228534,15.1203255 C9.87139163,14.2602987 9.17431415,13.5632212 8.31428738,13.5623276 Z M8.31428738,15.9155598 C7.87503921,15.9157088 7.5189041,15.5595737 7.5189041,15.1203255 C7.5189041,14.6810773 7.87489027,14.3249422 8.31413844,14.3249422 C8.75353555,14.3247933 9.10952172,14.6809284 9.10967066,15.1201765 C9.1092238,15.5592758 8.75338661,15.9152619 8.31428738,15.9157088 L8.31428738,15.9155598 Z" id="Shape"></path>
                        <path d="M15.0629804,13.5623276 C14.2025068,13.5623276 13.5049825,14.2598518 13.5049825,15.1201765 C13.5049825,15.9806502 14.2025068,16.6781745 15.0629804,16.6783235 C15.9233051,16.6783235 16.6209784,15.9807991 16.6209784,15.1203255 C16.6200847,14.2602987 15.9231562,13.5632212 15.0629804,13.5623276 Z M15.0629804,15.9155598 C14.6237323,15.9157088 14.2675972,15.5595737 14.2675972,15.1203255 C14.2675972,14.6810773 14.6235833,14.3249422 15.0629804,14.3249422 C15.5022286,14.3247933 15.8583637,14.6809284 15.8583637,15.1201765 C15.8579169,15.5592758 15.5020797,15.9152619 15.0629804,15.9157088 L15.0629804,15.9155598 Z" id="Shape"></path>
                        <path d="M1.56559432,13.5623276 C0.705120701,13.5623276 0.00759636669,14.2598518 0.00759636669,15.1203255 C0.00759636669,15.9807991 0.705120701,16.6783235 1.56559432,16.6783235 C2.42606795,16.6783235 3.12359228,15.9807991 3.12359228,15.1203255 C3.12269857,14.2601498 2.42562109,13.5632212 1.56559432,13.5623276 Z M1.56559432,15.9155598 C1.12634611,15.9155598 0.770211046,15.5595737 0.770211046,15.1201765 C0.770211046,14.6809284 1.12634611,14.3249422 1.56559432,14.3249422 C2.0048425,14.3249422 2.3609776,14.6809284 2.3609776,15.1201765 C2.3609776,15.5595737 2.0048425,15.9157088 1.56559432,15.9157088 L1.56559432,15.9155598 Z" id="Shape"></path>
                        <path d="M1.71767041,12.609506 C1.92828311,12.609506 2.09897775,12.4386625 2.09897775,12.2281987 L2.09897775,10.2127809 C2.09331773,10.0048492 2.25730967,9.83177143 2.46524133,9.82626036 L7.93298004,9.82626036 L7.93298004,12.2281987 C7.93298004,12.4386625 8.10367467,12.609506 8.31428738,12.609506 C8.52490008,12.609506 8.69559472,12.4386625 8.69559472,12.2281987 L8.69559472,9.82626036 L14.1521623,9.82626036 C14.3627751,9.82938826 14.5315333,10.0020192 14.529597,10.2127809 L14.529597,12.2281987 C14.529597,12.4386625 14.7002916,12.609506 14.9109044,12.609506 C15.1215171,12.609506 15.2922117,12.4386625 15.2922117,12.2281987 L15.2922117,10.2127809 C15.2937012,9.58109164 14.7838516,9.06722043 14.1521623,9.06364568 L8.69559472,9.06364568 L8.69559472,6.42741184 C8.69559472,6.21694807 8.52490008,6.0461045 8.31428738,6.0461045 C8.10367467,6.0461045 7.93298004,6.21694807 7.93298004,6.42741184 L7.93298004,9.06364568 L2.46866715,9.06364568 C1.83906318,9.06781623 1.33219252,9.58138955 1.33636307,10.2109935 L1.33636307,12.2280497 C1.33636307,12.4386625 1.5070577,12.609506 1.71767041,12.609506 Z" id="Shape"></path>
                        <path d="M8.31428738,5.07421764 C9.71544291,5.07421764 10.8513217,3.9383388 10.8513217,2.53703433 C10.8513217,1.1358788 9.71544291,0 8.31428738,0 C6.91313184,0 5.77710407,1.1358788 5.77710407,2.53703433 C5.77874251,3.93759407 6.91372764,5.0725792 8.31428738,5.07421764 Z M8.31428738,0.76246574 C9.2943664,0.76246574 10.088707,1.55695531 10.088707,2.53703433 C10.088707,3.51711335 9.2943664,4.31145398 8.31428738,4.31145398 C7.33420836,4.31145398 6.53971875,3.51711335 6.53971875,2.53703433 C6.53971875,1.55695531 7.33420836,0.76246574 8.31428738,0.76246574 Z" id="Shape"></path>
                    </g>
                </g>
            </g>
        </g>
    </g>
</svg>