<?xml version="1.0" encoding="UTF-8"?>
<svg width="34px" height="34px" viewBox="0 0 34 34" version="1.1" xmlns="http://www.w3.org/2000/svg" xmlns:xlink="http://www.w3.org/1999/xlink">
    <!-- Generator: Sketch 52.3 (67297) - http://www.bohemiancoding.com/sketch -->
    <title>Group 4 Copy</title>
    <desc>Created with Sketch.</desc>
    <g id="Admin_desktop" stroke="none" stroke-width="1" fill="none" fill-rule="evenodd">
        <g id="Group-4-Copy" transform="translate(1.000000, 1.000000)">
            <circle id="Oval-5" stroke="#4A90E2" fill="#5A5A5A" fill-rule="nonzero" cx="16" cy="16" r="16"></circle>
            <g id="menu/icon/Wallet" transform="translate(3.428571, 3.428571)">
                <rect id="Rectangle-path" x="0" y="0" width="25.1428571" height="25.1428571"></rect>
                <g id="User" transform="translate(3.428571, 1.142857)" fill-rule="nonzero" stroke="#FFFFFF">
                    <g id="avatar">
                        <path d="M5.34061558,4.24730792 C5.34061558,4.23190922 5.34574848,4.21651052 5.34574848,4.20624472 C5.51513417,0.525955546 8.12778018,0.13072226 9.24675234,0.13072226 L9.26728394,0.13072226 C9.27754974,0.13072226 9.29294844,0.13072226 9.30834714,0.13072226 C10.6942301,0.161519659 13.0502311,0.726138639 13.209351,4.20624472 C13.209351,4.22164342 13.209351,4.23704212 13.2144839,4.24730792 C13.2196168,4.28323821 13.5789198,7.77361009 11.9466576,9.61118823 C11.2999123,10.34006 10.4375851,10.699363 9.30321424,10.7096288 C9.29294844,10.7096288 9.28781554,10.7096288 9.27754974,10.7096288 C9.26728394,10.7096288 9.26215104,10.7096288 9.25188524,10.7096288 C8.12264728,10.699363 7.25518721,10.34006 6.61357473,9.61118823 C4.98644549,7.78387589 5.33548268,4.27810531 5.34061558,4.24730792 Z" id="Shape"></path>
                        <path d="M12.388087,13.312009 C12.4753463,13.3736038 14.5182405,14.795417 17.0744246,15.4524282 C18.2703902,15.8784589 18.4038456,17.156551 18.4397759,18.3268521 C18.4397759,18.3730482 18.4397759,18.4141114 18.4449088,18.4551746 C18.4500417,18.9171356 18.4192443,19.6306087 18.3371179,20.0412407 C17.5055882,20.5134674 14.2461968,22.1457296 9.28781554,22.1457296 C4.34996591,22.1457296 1.07004293,20.5083345 0.233380256,20.0361078 C0.151253859,19.6254758 0.115323561,18.9120027 0.12558936,18.4500417 C0.12558936,18.4089785 0.13072226,18.3679153 0.13072226,18.3217192 C0.166652559,17.1514181 0.300107954,15.873326 1.49607361,15.4472953 C4.05225772,14.7902841 6.09515185,13.363338 6.18241115,13.3068761" id="Shape" stroke-linecap="round"></path>
                    </g>
                </g>
            </g>
        </g>
    </g>
</svg>