<?xml version="1.0" encoding="UTF-8"?>
<svg width="66px" height="66px" viewBox="0 0 66 66" version="1.1" xmlns="http://www.w3.org/2000/svg" xmlns:xlink="http://www.w3.org/1999/xlink">
    <!-- Generator: Sketch 52.3 (67297) - http://www.bohemiancoding.com/sketch -->
    <title>Group 4 Copy</title>
    <desc>Created with Sketch.</desc>
    <g id="Admin_desktop" stroke="none" stroke-width="1" fill="none" fill-rule="evenodd">
        <g id="Group-4-Copy" transform="translate(1.000000, 1.000000)">
            <circle id="Oval-5" stroke="#4A4A4A" fill="#FFFFFF" fill-rule="nonzero" cx="32" cy="32" r="32"></circle>
            <g id="menu/icon/Wallet" transform="translate(6.857143, 6.857143)">
                <rect id="Rectangle-path" x="0" y="0" width="50.2857143" height="50.2857143"></rect>
                <g id="User" transform="translate(6.857143, 2.285714)" fill-rule="nonzero" stroke="#4A4A4A">
                    <g id="avatar">
                        <path d="M10.6812312,8.49461583 C10.6812312,8.46381843 10.691497,8.43302103 10.691497,8.41248943 C11.0302683,1.05191109 16.2555604,0.26144452 18.4935047,0.26144452 L18.5345679,0.26144452 C18.5550995,0.26144452 18.5858969,0.26144452 18.6166943,0.26144452 C21.3884602,0.323039318 26.1004622,1.45227728 26.418702,8.41248943 C26.418702,8.44328683 26.418702,8.47408423 26.4289678,8.49461583 C26.4392336,8.56647643 27.1578396,15.5472202 23.8933153,19.2223765 C22.5998245,20.68012 20.8751702,21.398726 18.6064285,21.4192576 C18.5858969,21.4192576 18.5756311,21.4192576 18.5550995,21.4192576 C18.5345679,21.4192576 18.5243021,21.4192576 18.5037705,21.4192576 C16.2452946,21.398726 14.5103744,20.68012 13.2271495,19.2223765 C9.97289098,15.5677518 10.6709654,8.55621063 10.6812312,8.49461583 Z" id="Shape"></path>
                        <path d="M24.7761741,26.624018 C24.9506927,26.7472076 29.0364809,29.5908341 34.1488491,30.9048564 C36.5407804,31.7569178 36.8076912,34.3131019 36.8795518,36.6537042 C36.8795518,36.7460964 36.8795518,36.8282228 36.8898176,36.9103492 C36.9000834,37.8342712 36.8384886,39.2612174 36.6742358,40.0824813 C35.0111763,41.0269349 28.4923935,44.2914592 18.5756311,44.2914592 C8.69993182,44.2914592 2.14008585,41.0166691 0.466760513,40.0722155 C0.302507719,39.2509516 0.230647121,37.8240054 0.251178721,36.9000834 C0.251178721,36.817957 0.26144452,36.7358306 0.26144452,36.6434384 C0.333305118,34.3028361 0.600215908,31.746652 2.99214722,30.8945906 C8.10451545,29.5805683 12.1903037,26.726676 12.3648223,26.6137522" id="Shape" stroke-linecap="round"></path>
                    </g>
                </g>
            </g>
        </g>
    </g>
</svg>