<svg xmlns="http://www.w3.org/2000/svg" width="24" height="24" viewBox="0 0 24 24">
    <g fill="none" fill-rule="evenodd">
        <path d="M0 0h24v24H0z"/>
        <g fill="#FFF">
            <path fill-rule="nonzero" d="M20 22.078V13.176a.392.392 0 0 0-.392-.392h-2.51a.392.392 0 0 0-.392.392v8.118h-.784v-5.372a.392.392 0 0 0-.393-.393h-2.51a.392.392 0 0 0-.392.393v5.372h-.784v-3.122a.392.392 0 0 0-.392-.393h-2.51a.392.392 0 0 0-.392.393v3.122H5.176a.393.393 0 0 1-.392-.392V3.176c0-.216.176-.392.392-.392h10.117v2.589c0 .648.528 1.176 1.177 1.176h2.588v4.824a.392.392 0 0 0 .784 0V6.157a.392.392 0 0 0-.115-.277l-3.764-3.765A.392.392 0 0 0 15.685 2H5.176C4.528 2 4 2.528 4 3.176v17.726c0 .649.528 1.176 1.176 1.176H20zm-3.923-18.74l2.426 2.427H16.47a.393.393 0 0 1-.393-.392V3.339zM11.06 21.295H9.333v-2.73h1.726v2.73zm4.078 0h-1.725v-4.98h1.725v4.98zm4.079 0H17.49V13.57h1.726v7.725z"/>
            <path fill-rule="nonzero" d="M9.709 4.146a.392.392 0 0 0-.392.392v.706A3.612 3.612 0 0 0 6.102 8.83a3.611 3.611 0 0 0 3.607 3.606c1.856 0 3.39-1.41 3.586-3.214H14a.392.392 0 0 0 .392-.392c0-2.583-2.1-4.684-4.683-4.684zm0 7.506a2.826 2.826 0 0 1-2.823-2.823 2.827 2.827 0 0 1 2.43-2.795V8.83c0 .217.176.393.393.393h2.795a2.827 2.827 0 0 1-2.795 2.43zm.392-3.215V4.95a3.906 3.906 0 0 1 3.487 3.487h-3.487z"/>
            <path d="M14 13.54H6.51a.392.392 0 0 0 0 .784H14a.392.392 0 0 0 0-.785zM9.02 15.431H6.51a.392.392 0 0 0 0 .785h2.51a.392.392 0 0 0 0-.785zM11.26 15.546a.395.395 0 0 0-.554 0 .393.393 0 0 0 .278.67.395.395 0 0 0 .392-.392.395.395 0 0 0-.115-.278z"/>
        </g>
    </g>
</svg>
