<svg xmlns="http://www.w3.org/2000/svg" width="15" height="10" viewBox="0 0 15 10">
    <g fill="none" fill-rule="evenodd">
        <path fill="#56AC17" d="M2.134 3.76h7.241a.625.625 0 1 0 0-1.25H2.134l1.433-1.433a.625.625 0 0 0-.884-.884l-2.5 2.5a.626.626 0 0 0-.041.046l-.017.022c-.007.009-.014.017-.02.027l-.016.027-.015.025-.014.029c-.004.009-.009.017-.012.027l-.01.028-.011.03-.007.028-.008.03-.005.034-.004.027a.629.629 0 0 0 0 .123l.004.028.005.033.008.03.007.03.01.029.01.028.013.027.014.028c.004.009.01.017.015.026l.016.027c.006.01.013.018.02.027.006.007.01.015.017.022a.623.623 0 0 0 .04.045h.001l2.5 2.5a.625.625 0 0 0 .884-.883L2.134 3.76z"/>
        <path fill="#4A4A4A" d="M14.858 7.28l.017-.021.02-.027.016-.028.015-.025.014-.028.012-.027.01-.028.011-.03.007-.028.008-.031.005-.033.004-.028a.629.629 0 0 0 0-.123l-.004-.027-.005-.033-.008-.031-.007-.029-.01-.03-.01-.027-.013-.027-.014-.029-.015-.025-.016-.027c-.006-.01-.013-.018-.02-.027-.006-.007-.01-.015-.017-.022a.626.626 0 0 0-.04-.045l-.001-.001-2.5-2.5a.625.625 0 0 0-.884.884l1.433 1.433H5.625a.625.625 0 1 0 0 1.25h7.241l-1.433 1.433a.625.625 0 0 0 .884.884l2.5-2.5a.647.647 0 0 0 .041-.046z" opacity=".4"/>
    </g>
</svg>
