<svg xmlns="http://www.w3.org/2000/svg" width="12" height="12" viewBox="0 0 12 12">
    <g fill="#FF8D00" fill-rule="evenodd">
        <path d="M7.188 10.85c-.099.025-.2.046-.299.065a.481.481 0 0 0 .175.945c.12-.022.239-.048.356-.077a.48.48 0 1 0-.232-.933zM10.744 4.406a.48.48 0 0 0 .607.305.48.48 0 0 0 .305-.608 5.973 5.973 0 0 0-.125-.342.48.48 0 1 0-.892.357c.037.094.073.191.105.288zM8.75 10.164c-.084.056-.172.11-.26.16a.48.48 0 0 0 .48.833c.105-.06.21-.124.31-.191a.48.48 0 0 0-.53-.802zM11.955 5.748a.48.48 0 0 0-.96.038c.004.102.005.205.002.306a.48.48 0 1 0 .962.021 5.969 5.969 0 0 0-.004-.365zM10.665 8.899a.48.48 0 0 0-.673.096 5.018 5.018 0 0 1-.191.239.481.481 0 0 0 .732.623c.079-.092.155-.188.228-.285a.48.48 0 0 0-.096-.673zM11.372 7.16a.48.48 0 0 0-.603.316c-.03.096-.064.194-.1.289a.481.481 0 0 0 .898.342 6.18 6.18 0 0 0 .12-.344.48.48 0 0 0-.315-.602zM5.09 10.92a4.964 4.964 0 0 1-1.233-.393l-.013-.007a5.251 5.251 0 0 1-.274-.139H3.57a5.023 5.023 0 0 1-.457-8.517l.017-.012a5.026 5.026 0 0 1 5.632-.045l-.375.542c-.105.151-.04.261.142.245l1.632-.146a.269.269 0 0 0 .243-.352L9.965.518C9.916.34 9.791.319 9.686.47l-.376.544A5.938 5.938 0 0 0 4.503.187H4.5l-.017.005a5.929 5.929 0 0 0-3.288 2.203l-.02.025a5.663 5.663 0 0 0-.208.3l-.013.023A5.928 5.928 0 0 0 .006 6.24v.012c.006.12.015.243.028.363 0 .008.003.015.004.023a5.934 5.934 0 0 0 1.725 3.581l.006.007.002.002c.235.232.49.446.766.64.72.507 1.522.843 2.384.998a.48.48 0 1 0 .17-.947z"/>
        <path d="M5.685 2.096a.39.39 0 0 0-.39.389V6.36L8.84 8.193a.387.387 0 0 0 .524-.167.389.389 0 0 0-.166-.525L6.074 5.886V2.485a.389.389 0 0 0-.39-.39z"/>
    </g>
</svg>
