<?xml version="1.0" encoding="UTF-8"?>
<svg width="20px" height="20px" viewBox="0 0 20 20" version="1.1" xmlns="http://www.w3.org/2000/svg" xmlns:xlink="http://www.w3.org/1999/xlink">
    <!-- Generator: Sketch 52.3 (67297) - http://www.bohemiancoding.com/sketch -->
    <title>IPAddressConfig</title>
    <desc>Created with Sketch.</desc>
    <g id="Symbols" stroke="none" stroke-width="1" fill="none" fill-rule="evenodd">
        <g id="Phase2/Icons/timezoneConfig" transform="translate(-2.000000, -2.000000)">
            <g id="IPAddressConfig">
                <rect id="Rectangle-5" fill-rule="nonzero" x="0" y="0" width="24" height="24"></rect>
                <g id="time-zone" transform="translate(2.000000, 2.000000)" fill="#4A90E2">
                    <path d="M14.5875,9.18519531 C11.6058594,9.18519531 9.18011719,11.6109375 9.18011719,14.5925781 C9.18011719,17.5742188 11.6058594,20 14.5875,20 C17.5691797,20 19.9948828,17.5742578 19.9948828,14.5926172 C19.9948828,11.6109766 17.5691406,9.18519531 14.5875,9.18519531 Z M14.5875,18.4382812 C12.4669922,18.4382812 10.7417969,16.713125 10.7417969,14.5925781 C10.7417969,12.4720312 12.4669531,10.746875 14.5875,10.746875 C16.7080469,10.746875 18.4332031,12.4720312 18.4332031,14.5925781 C18.4332031,16.713125 16.7080078,18.4382812 14.5875,18.4382812 Z" id="Shape" fill-rule="nonzero"></path>
                    <path d="M13.0801953,0.024453125 L6.90660156,1.62644531 L0.005078125,0 L0.005078125,18.2680469 L6.91742188,19.9851172 L9.48539063,19.335 C9.10351562,18.9244141 8.77050781,18.4678125 8.495625,17.9746094 L7.69644531,18.1769141 L7.69644531,3.03488281 L12.3034766,1.83941406 L12.3034766,8.008125 C12.8010156,7.83503906 13.3239844,7.71695313 13.8651953,7.66097656 L13.8651953,1.82863281 L18.4331641,2.96332031 L18.4331641,8.78359375 C19.0226563,9.17519531 19.549375,9.65394531 19.9948828,10.2014453 L19.9948828,1.74210938 L13.0801953,0.024453125 Z M6.13476562,18.1815625 L1.56679687,17.0468359 L1.56679687,1.97246094 L6.13476562,3.04902344 L6.13476562,18.1815625 Z" id="Shape" fill-rule="nonzero"></path>
                    <polygon id="Path" points="15.3878906 13.7531641 15.3878906 11.9181641 13.8261719 11.9181641 13.8261719 15.3148828 16.8714844 15.3148828 16.8714844 13.7531641"></polygon>
                </g>
            </g>
        </g>
    </g>
</svg>