<svg xmlns="http://www.w3.org/2000/svg" width="11" height="14" viewBox="0 0 11 14">
    <g fill="#FFF" fill-rule="evenodd">
        <path d="M10.498 2.857H1.622L3.74.81a.449.449 0 0 0 0-.65.486.486 0 0 0-.672 0L.139 2.992a.449.449 0 0 0 0 .65l2.929 2.833c.093.09.214.134.336.134a.482.482 0 0 0 .336-.134.449.449 0 0 0 0-.65L1.622 3.776h8.876a.467.467 0 0 0 .475-.46.467.467 0 0 0-.475-.459zM.502 9.444h8.876L7.26 7.395a.449.449 0 0 1 0-.65.486.486 0 0 1 .672 0l2.929 2.834c.185.179.185.47 0 .65L7.932 13.06a.482.482 0 0 1-.336.135.482.482 0 0 1-.336-.135.449.449 0 0 1 0-.65l2.118-2.048H.502a.467.467 0 0 1-.475-.46c0-.253.213-.459.475-.459z"/>
    </g>
</svg>
