<svg xmlns="http://www.w3.org/2000/svg" width="11" height="14" viewBox="0 0 11 14">
    <g fill="#000" fill-rule="evenodd">
        <path d="M10.498 2.954H1.622L3.74.836a.475.475 0 1 0-.672-.672L.139 3.094a.475.475 0 0 0 0 .67l2.929 2.93a.473.473 0 0 0 .672 0 .475.475 0 0 0 0-.672L1.622 3.904h8.876a.475.475 0 0 0 0-.95zM.502 9.764h8.876L7.26 7.645a.475.475 0 1 1 .672-.671l2.929 2.929a.475.475 0 0 1 0 .671l-2.929 2.93a.473.473 0 0 1-.672 0 .475.475 0 0 1 0-.672l2.118-2.119H.502a.475.475 0 0 1 0-.95z"/>
    </g>
</svg>
